<svg xmlns="http://www.w3.org/2000/svg" width="26" height="26" viewBox="0 0 26 26"><defs><style>.a{fill:rgba(255,255,255,0);opacity:0;}.b{fill:#ff7069;}.c{fill:#fff;}</style></defs><g transform="translate(-1032 -507)"><rect class="a" width="26" height="26" transform="translate(1032 507)"/><g transform="translate(1032.5 506.949)"><circle class="b" cx="12.5" cy="12.5" r="12.5" transform="translate(0 0.551)"/><path class="c" d="M18.313,15.931v1.743a1.158,1.158,0,0,1-.379.861,1.174,1.174,0,0,1-.9.3,11.615,11.615,0,0,1-5.045-1.784,11.363,11.363,0,0,1-3.508-3.486A11.453,11.453,0,0,1,6.691,8.528a1.158,1.158,0,0,1,.3-.888,1.172,1.172,0,0,1,.862-.379H9.608a1.173,1.173,0,0,1,.774.281,1.16,1.16,0,0,1,.4.718,7.422,7.422,0,0,0,.409,1.633,1.157,1.157,0,0,1-.263,1.226l-.742.738a9.325,9.325,0,0,0,3.508,3.486l.743-.738a1.174,1.174,0,0,1,1.233-.261,7.547,7.547,0,0,0,1.643.407,1.171,1.171,0,0,1,.729.4A1.158,1.158,0,0,1,18.313,15.931Z"/></g></g></svg>