<svg xmlns="http://www.w3.org/2000/svg" width="60" height="60.622" viewBox="0 0 60 60.622"><defs><style>.a{fill:rgba(255,255,255,0);opacity:0;}.b{fill:none;stroke:#fff;stroke-linecap:round;stroke-linejoin:round;}</style></defs><g transform="translate(-2795 7413)"><rect class="a" width="60" height="60" transform="translate(2795 -7413)"/><g transform="matrix(0.921, 0.391, -0.391, 0.921, 2808.9, -7435.554)"><path class="b" d="M44.767,47.2l4.447-16.758a11.066,11.066,0,0,0-7.6-13.675h0a11.066,11.066,0,0,0-13.379,8.11L22.012,48.336c-1.367,5.15.927,10.937,5.252,13.3" transform="translate(0 0)"/><line class="b" x1="20.977" y1="5.565" transform="translate(25.199 36.324)"/><circle class="b" cx="9.057" cy="9.057" r="9.057" transform="translate(31.497 50.474)"/><path class="b" d="M38.155,27.907a6.935,6.935,0,0,0-4.761-8.569" transform="translate(7.884 1.959)"/><g transform="matrix(0.391, 0.921, -0.921, 0.391, 41.235, 53.89)"><path class="b" d="M3.825,0H9.266" transform="translate(0 2.721)"/><path class="b" d="M0,0,2.7,2.721,0,5.441" transform="translate(6.563 0)"/></g></g></g></svg>