<svg xmlns="http://www.w3.org/2000/svg" width="60" height="60" viewBox="0 0 60 60"><defs><style>.a{fill:rgba(255,255,255,0);opacity:0;}.b{fill:#00a26d;}</style></defs><g transform="translate(-3628 8478)"><rect class="a" width="60" height="60" transform="translate(3628 -8478)"/><g transform="translate(3632 -8462)"><path class="b" d="M.673,1.293H2.394A.662.662,0,0,0,3.067.647.662.662,0,0,0,2.394,0H.673A.662.662,0,0,0,0,.647.656.656,0,0,0,.673,1.293Z" transform="translate(3.637 5.034)"/><path class="b" d="M.673,0A.662.662,0,0,0,0,.647a.662.662,0,0,0,.673.647H11.8a.662.662,0,0,0,.673-.647A.662.662,0,0,0,11.8,0Z" transform="translate(6.747 13.114)"/><path class="b" d="M.673,1.293H11.8a.662.662,0,0,0,.673-.647A.662.662,0,0,0,11.8,0H.673A.662.662,0,0,0,0,.647.662.662,0,0,0,.673,1.293Z" transform="translate(3.523 9.16)"/><path class="b" d="M.673,1.293H11.8a.662.662,0,0,0,.673-.647A.662.662,0,0,0,11.8,0H.673A.662.662,0,0,0,0,.647.659.659,0,0,0,.673,1.293Z" transform="translate(8.357 5.034)"/><path class="b" d="M40.789,15.451a3.312,3.312,0,0,0-.379-1.49L36.142,5.779a2.093,2.093,0,0,0-1.87-1.109H26.3V2.46A2.368,2.368,0,0,0,24.041,0H2.262A2.368,2.368,0,0,0,0,2.46a.662.662,0,0,0,.673.647.662.662,0,0,0,.673-.647A1.075,1.075,0,0,1,2.258,1.3H24.036a1.075,1.075,0,0,1,.912,1.162V22.016H14.981A4.823,4.823,0,0,0,10.346,18.7a4.823,4.823,0,0,0-4.634,3.315H2.262a1.075,1.075,0,0,1-.912-1.162.662.662,0,0,0-.673-.647A.662.662,0,0,0,0,20.854a2.37,2.37,0,0,0,2.262,2.46H5.512v.037A4.752,4.752,0,0,0,10.351,28a4.755,4.755,0,0,0,4.839-4.65v-.037H26.626v.037a4.843,4.843,0,0,0,9.678,0v-.037h2.483a2.125,2.125,0,0,0,1.482-.593,1.937,1.937,0,0,0,.6-1.433ZM10.346,26.7a3.431,3.431,0,0,1-3.493-3.356,3.277,3.277,0,0,1,.29-1.338c.034-.074.072-.151.111-.221.026-.045.051-.086.077-.127s.051-.082.077-.119.055-.082.085-.123.064-.082.094-.119.064-.082.1-.119c.051-.057.106-.119.162-.172.03-.029.064-.057.094-.09s.081-.074.124-.111l.1-.082c.051-.041.106-.078.162-.119.026-.016.051-.037.077-.053.077-.049.162-.1.243-.143l.094-.049c.06-.029.124-.057.187-.086.034-.012.064-.029.1-.041a2.579,2.579,0,0,1,.251-.086l.038-.012c.1-.029.2-.053.3-.074a.685.685,0,0,1,.089-.016c.077-.012.153-.025.23-.033a.724.724,0,0,1,.094-.008c.106-.008.213-.016.319-.016s.213.008.319.016a.724.724,0,0,0,.094.008c.077.008.153.02.23.033.03,0,.06.012.089.016.1.02.2.045.3.074l.038.012c.085.025.166.057.251.086.034.012.064.029.1.041.064.029.124.057.183.086l.094.049a2.33,2.33,0,0,1,.243.143c.026.016.051.037.077.053.055.037.111.078.162.119a.926.926,0,0,1,.1.082c.043.037.085.074.124.111a.955.955,0,0,1,.094.09c.055.057.111.115.162.172.034.041.068.078.1.119s.064.078.094.119.055.082.085.123.051.078.077.119.051.082.077.127c.038.074.077.147.111.221a3.209,3.209,0,0,1,.29,1.338A3.415,3.415,0,0,1,10.346,26.7Zm21.11,0a3.431,3.431,0,0,1-3.493-3.356,3.19,3.19,0,0,1,.29-1.334,2.256,2.256,0,0,1,.115-.225c.026-.045.051-.086.077-.127s.051-.082.077-.119.055-.082.085-.123.064-.082.094-.123.064-.082.1-.119a1.614,1.614,0,0,1,.166-.172c.03-.029.064-.057.094-.09s.081-.074.128-.111l.1-.082c.051-.041.106-.078.162-.119.026-.016.051-.037.077-.053.081-.049.162-.1.243-.143l.094-.049c.06-.029.124-.057.187-.086.034-.012.064-.029.1-.041a2.579,2.579,0,0,1,.251-.086l.038-.012q.147-.043.294-.074a.685.685,0,0,1,.089-.016c.077-.012.153-.025.23-.033A.724.724,0,0,1,31.141,20c.106-.008.213-.016.319-.016s.213.008.319.016a.724.724,0,0,0,.094.008c.077.008.153.02.23.033.03,0,.06.012.089.016.1.02.2.045.3.074l.038.012c.085.025.166.057.247.086.034.012.064.029.1.041.064.029.124.057.183.086l.094.049a2.33,2.33,0,0,1,.243.143c.026.016.051.037.077.053.055.037.111.078.162.119a.926.926,0,0,1,.1.082c.043.037.085.074.124.111a.955.955,0,0,1,.094.09c.055.057.111.115.162.172.034.041.068.078.1.119s.064.078.094.119.055.082.085.123.051.078.077.119.051.082.077.127c.038.074.077.147.111.221a3.212,3.212,0,0,1,.294,1.338A3.426,3.426,0,0,1,31.456,26.7ZM39.3,21.8a.746.746,0,0,1-.524.209H36.1a4.9,4.9,0,0,0-9.269,0H26.3V5.963h7.974a.737.737,0,0,1,.66.393l3.978,7.625H31.456V8.767a.674.674,0,0,0-1.346,0v6.512h9.316a1.4,1.4,0,0,1,.013.188l.072,5.832A.671.671,0,0,1,39.3,21.8Z" transform="translate(11.139)"/><path class="b" d="M5.525.647A.662.662,0,0,0,4.852,0H.677A.657.657,0,0,0,0,.647a.662.662,0,0,0,.673.647H4.847A.663.663,0,0,0,5.525.647Z" transform="translate(0 13.118)"/><path class="b" d="M12.472.647A.662.662,0,0,0,11.8,0H.673A.662.662,0,0,0,0,.647a.662.662,0,0,0,.673.647H11.8A.656.656,0,0,0,12.472.647Z" transform="translate(2.986 17.158)"/></g></g></svg>