<svg xmlns="http://www.w3.org/2000/svg" width="25" height="25" viewBox="0 0 25 25"><defs><style>.a{fill:#ff7069;}.b{fill:#fff;}</style></defs><g transform="translate(21326 2419)"><circle class="a" cx="12.5" cy="12.5" r="12.5" transform="translate(-21326 -2419)"/><g transform="translate(-21322.59 -2415)"><path class="b" d="M9.539,13.115l-.195.195H6.992V10.958l.195-.195,5.881-5.881.47-.47.107-.107V3.331A1.331,1.331,0,0,0,12.314,2H6.327L3,5.327v8.649a1.331,1.331,0,0,0,1.331,1.331h7.984a1.331,1.331,0,0,0,1.331-1.331V9.009ZM4,5.992,6.992,3V5.992Zm5.071,6.653H7.657V11.234l5.881-5.881,1.411,1.411ZM16.36,5.353l-.941.941L14.008,4.883l.941-.941a.665.665,0,0,1,.941,0l.47.47A.665.665,0,0,1,16.36,5.353Z"/></g></g></svg>