<svg xmlns="http://www.w3.org/2000/svg" width="25" height="25" viewBox="0 0 25 25"><defs><style>.a{fill:#ff7069;}.b{fill:#fff;}</style></defs><g transform="translate(20728 2585)"><circle class="a" cx="12.5" cy="12.5" r="12.5" transform="translate(-20728 -2585)"/><path class="b" d="M22.592,11.24H13.108A2.108,2.108,0,0,0,11,13.348v6.323a2.108,2.108,0,0,0,2.108,2.108h3.369l2.94,2.9a.6.6,0,0,0,.42.176.494.494,0,0,0,.234-.058.453.453,0,0,0,.239-.464l-.067-2.552h2.35A2.108,2.108,0,0,0,24.7,19.671V13.348A2.108,2.108,0,0,0,22.592,11.24Zm-7.676,1.932.924.792s-.054.184,0,.237L17.2,15.563l-.255.255-1.361-1.361c-.044-.044-.237,0-.237,0l-.8-.92Zm5.935,5.972-.318.318a.4.4,0,0,1-.573,0l-1.955-1.941.9-.9,1.95,1.951a.4.4,0,0,1,0,.576Zm-1.21-3.126a1.5,1.5,0,0,1-.606-.139l-3.557,3.555a.546.546,0,0,1-.773-.773l3.557-3.553a1.5,1.5,0,0,1-.139-.606,1.53,1.53,0,0,1,1.518-1.518,1.5,1.5,0,0,1,.606.139l-.855.855a.546.546,0,0,0,.773.773l.847-.857a1.5,1.5,0,0,1,.139.606A1.53,1.53,0,0,1,19.642,16.017Z" transform="translate(-20733.5 -2589.74)"/></g></svg>