<svg xmlns="http://www.w3.org/2000/svg" width="26" height="26" viewBox="0 0 26 26"><defs><style>.a{fill:#faf9fa;}.b{fill:#c9c9c9;}</style></defs><g transform="translate(-1179.999 -14.999)"><circle class="a" cx="12.939" cy="12.939" r="12.939" transform="translate(1180 15)"/><g transform="translate(1179.999 14.999)"><path class="b" d="M27.3,40.3a13,13,0,1,0-13-13A13.008,13.008,0,0,0,27.3,40.3Zm-8.594-4.261A10.873,10.873,0,0,1,27.3,31.415a10.925,10.925,0,0,1,8.594,4.625,12.311,12.311,0,0,1-17.188,0ZM27.3,15.028a12.272,12.272,0,0,1,9.1,20.5,11.571,11.571,0,0,0-9.1-4.843,11.571,11.571,0,0,0-9.1,4.843,12.272,12.272,0,0,1,9.1-20.5Z" transform="translate(-14.3 -14.3)"/><path class="b" d="M41.79,35.88a4.99,4.99,0,1,0-4.99-4.99A4.985,4.985,0,0,0,41.79,35.88Zm0-9.224a4.234,4.234,0,1,1-4.234,4.234A4.227,4.227,0,0,1,41.79,26.656Z" transform="translate(-28.79 -21.771)"/></g></g></svg>